<mxfile host="app.diagrams.net" modified="2024-01-13T21:29:25.370Z" agent="Mozilla/5.0 (Windows NT 10.0; Win64; x64) AppleWebKit/537.36 (KHTML, like Gecko) Chrome/120.0.0.0 Safari/537.36" etag="1MMj47DkQj_shKIxuBMR" version="22.1.18" type="github">
  <diagram name="Page-1" id="OrSv6cPTH5LckUa_HxwH">
    <mxGraphModel dx="1985" dy="2065" grid="1" gridSize="10" guides="1" tooltips="1" connect="1" arrows="1" fold="1" page="1" pageScale="1" pageWidth="850" pageHeight="1100" math="0" shadow="0">
      <root>
        <mxCell id="0" />
        <mxCell id="1" parent="0" />
        <mxCell id="birgMrSsoCt3yu_jcz52-56" value="3:&amp;nbsp; Afficher la vitesse, l&#39;état de charge de batterie, &lt;br&gt;Niveau d&#39;assistance,&amp;nbsp;distance parcourus&amp;nbsp;" style="edgeStyle=none;html=1;endArrow=open;endSize=12;verticalAlign=bottom;rounded=0;entryX=1;entryY=1;entryDx=0;entryDy=0;" edge="1" parent="1" target="birgMrSsoCt3yu_jcz52-33">
          <mxGeometry x="-0.4" width="160" relative="1" as="geometry">
            <mxPoint x="750" y="200" as="sourcePoint" />
            <mxPoint x="160" y="170" as="targetPoint" />
            <mxPoint as="offset" />
          </mxGeometry>
        </mxCell>
        <mxCell id="birgMrSsoCt3yu_jcz52-1" value="&lt;b&gt;&lt;font style=&quot;font-size: 14px;&quot;&gt;: Utilisateur&lt;/font&gt;&lt;/b&gt;" style="shape=rect;html=1;whiteSpace=wrap;align=center;" vertex="1" parent="1">
          <mxGeometry x="60" y="-60" width="160" height="60" as="geometry" />
        </mxCell>
        <mxCell id="birgMrSsoCt3yu_jcz52-4" value="" style="edgeStyle=none;html=1;endArrow=none;align=center;verticalAlign=bottom;exitX=0.5;exitY=1;rounded=0;strokeWidth=2;dashed=1;" edge="1" parent="1" source="birgMrSsoCt3yu_jcz52-57">
          <mxGeometry x="1" relative="1" as="geometry">
            <mxPoint x="750" y="550" as="targetPoint" />
            <mxPoint x="755" y="160" as="sourcePoint" />
          </mxGeometry>
        </mxCell>
        <mxCell id="birgMrSsoCt3yu_jcz52-5" value="&amp;lt;&amp;lt;Subsystem&amp;gt;&amp;gt;&lt;br&gt;&lt;b&gt;&lt;font style=&quot;font-size: 14px;&quot;&gt;Moteur&lt;/font&gt;&lt;/b&gt;" style="shape=rect;html=1;whiteSpace=wrap;align=center;" vertex="1" parent="1">
          <mxGeometry x="1330" y="-60" width="160" height="60" as="geometry" />
        </mxCell>
        <mxCell id="birgMrSsoCt3yu_jcz52-6" value="" style="edgeStyle=none;html=1;endArrow=none;align=center;verticalAlign=bottom;exitX=0.5;exitY=1;rounded=0;exitDx=0;exitDy=0;strokeWidth=2;dashed=1;" edge="1" parent="1">
          <mxGeometry x="1" relative="1" as="geometry">
            <mxPoint x="1410" y="530" as="targetPoint" />
            <mxPoint x="1410" as="sourcePoint" />
          </mxGeometry>
        </mxCell>
        <mxCell id="birgMrSsoCt3yu_jcz52-7" value="&amp;lt;&amp;lt;Subsystem&amp;gt;&amp;gt;&lt;br&gt;&lt;b&gt;&lt;font style=&quot;font-size: 14px;&quot;&gt;Batterie&lt;/font&gt;&lt;/b&gt;" style="shape=rect;html=1;whiteSpace=wrap;align=center;" vertex="1" parent="1">
          <mxGeometry x="1040" y="-60" width="160" height="60" as="geometry" />
        </mxCell>
        <mxCell id="birgMrSsoCt3yu_jcz52-8" value="" style="edgeStyle=none;html=1;endArrow=none;align=center;verticalAlign=bottom;exitX=0.5;exitY=1;rounded=0;strokeWidth=2;dashed=1;" edge="1" parent="1" source="birgMrSsoCt3yu_jcz52-69">
          <mxGeometry x="1" relative="1" as="geometry">
            <mxPoint x="1120" y="540" as="targetPoint" />
          </mxGeometry>
        </mxCell>
        <mxCell id="birgMrSsoCt3yu_jcz52-34" value="" style="edgeStyle=none;html=1;endArrow=none;align=center;verticalAlign=bottom;exitX=0.5;exitY=1;rounded=0;strokeWidth=2;dashed=1;" edge="1" parent="1" source="birgMrSsoCt3yu_jcz52-1" target="birgMrSsoCt3yu_jcz52-33">
          <mxGeometry x="1" relative="1" as="geometry">
            <mxPoint x="140" y="520" as="targetPoint" />
            <mxPoint x="140" y="160" as="sourcePoint" />
          </mxGeometry>
        </mxCell>
        <mxCell id="birgMrSsoCt3yu_jcz52-33" value="" style="shape=rect;html=1;fillColor=#eeeeee;" vertex="1" parent="1">
          <mxGeometry x="130" y="120" width="20" height="80" as="geometry" />
        </mxCell>
        <mxCell id="birgMrSsoCt3yu_jcz52-43" value="" style="shape=umlActor;html=1;verticalLabelPosition=bottom;verticalAlign=top;align=center;" vertex="1" parent="1">
          <mxGeometry x="190" y="-50" width="20" height="40" as="geometry" />
        </mxCell>
        <mxCell id="birgMrSsoCt3yu_jcz52-47" value="&amp;lt;&amp;lt;System&amp;gt;&amp;gt;&lt;br&gt;&lt;b&gt;&lt;font style=&quot;font-size: 14px;&quot;&gt;Assistance électrique&amp;nbsp;&lt;/font&gt;&lt;/b&gt;" style="shape=rect;html=1;whiteSpace=wrap;align=center;" vertex="1" parent="1">
          <mxGeometry x="670" y="-60" width="160" height="60" as="geometry" />
        </mxCell>
        <mxCell id="birgMrSsoCt3yu_jcz52-54" value="2: Appuyer sur le bouton de démarage" style="edgeStyle=none;html=1;endArrow=open;endSize=12;verticalAlign=bottom;rounded=0;entryX=0;entryY=0;entryDx=0;entryDy=0;" edge="1" parent="1" target="birgMrSsoCt3yu_jcz52-57">
          <mxGeometry x="-0.541" width="160" relative="1" as="geometry">
            <mxPoint x="140" y="120" as="sourcePoint" />
            <mxPoint x="750" y="120" as="targetPoint" />
            <mxPoint as="offset" />
          </mxGeometry>
        </mxCell>
        <mxCell id="birgMrSsoCt3yu_jcz52-58" value="" style="edgeStyle=none;html=1;endArrow=none;align=center;verticalAlign=bottom;rounded=0;strokeWidth=2;dashed=1;exitX=0.5;exitY=1;exitDx=0;exitDy=0;" edge="1" parent="1" source="birgMrSsoCt3yu_jcz52-47" target="birgMrSsoCt3yu_jcz52-57">
          <mxGeometry x="1" relative="1" as="geometry">
            <mxPoint x="755" y="520" as="targetPoint" />
            <mxPoint x="750" y="160" as="sourcePoint" />
          </mxGeometry>
        </mxCell>
        <mxCell id="birgMrSsoCt3yu_jcz52-57" value="" style="shape=rect;html=1;fillColor=#eeeeee;" vertex="1" parent="1">
          <mxGeometry x="740" y="120" width="20" height="80" as="geometry" />
        </mxCell>
        <mxCell id="birgMrSsoCt3yu_jcz52-59" value="4: Vérifier l&#39;état de batterie" style="edgeStyle=none;html=1;endArrow=open;endSize=12;verticalAlign=bottom;rounded=0;exitX=0.75;exitY=0;exitDx=0;exitDy=0;entryX=0;entryY=0;entryDx=0;entryDy=0;" edge="1" parent="1" source="birgMrSsoCt3yu_jcz52-62" target="birgMrSsoCt3yu_jcz52-69">
          <mxGeometry x="0.0164" width="160" relative="1" as="geometry">
            <mxPoint x="580" y="260" as="sourcePoint" />
            <mxPoint x="910" y="250" as="targetPoint" />
            <mxPoint x="-1" as="offset" />
          </mxGeometry>
        </mxCell>
        <mxCell id="birgMrSsoCt3yu_jcz52-60" value="5: état de ChargeOk&amp;nbsp;" style="edgeStyle=none;html=1;endArrow=open;endSize=12;verticalAlign=bottom;rounded=0;entryX=1;entryY=1;entryDx=0;entryDy=0;exitX=0;exitY=1;exitDx=0;exitDy=0;" edge="1" parent="1" source="birgMrSsoCt3yu_jcz52-69" target="birgMrSsoCt3yu_jcz52-62">
          <mxGeometry width="160" relative="1" as="geometry">
            <mxPoint x="910" y="320" as="sourcePoint" />
            <mxPoint x="590" y="304" as="targetPoint" />
            <mxPoint as="offset" />
          </mxGeometry>
        </mxCell>
        <mxCell id="birgMrSsoCt3yu_jcz52-62" value="" style="shape=rect;html=1;fillColor=#eeeeee;" vertex="1" parent="1">
          <mxGeometry x="740" y="250" width="20" height="70" as="geometry" />
        </mxCell>
        <mxCell id="birgMrSsoCt3yu_jcz52-65" value="" style="edgeStyle=none;html=1;endArrow=none;align=center;verticalAlign=bottom;exitX=0.5;exitY=1;rounded=0;strokeWidth=2;dashed=1;" edge="1" parent="1" source="birgMrSsoCt3yu_jcz52-33">
          <mxGeometry x="1" relative="1" as="geometry">
            <mxPoint x="140" y="560" as="targetPoint" />
            <mxPoint x="140" y="310" as="sourcePoint" />
          </mxGeometry>
        </mxCell>
        <mxCell id="birgMrSsoCt3yu_jcz52-66" value="7. Pédalage avec assistance" style="edgeStyle=none;html=1;endArrow=open;endSize=12;verticalAlign=bottom;rounded=0;" edge="1" parent="1">
          <mxGeometry x="-0.3871" width="160" relative="1" as="geometry">
            <mxPoint x="140" y="410" as="sourcePoint" />
            <mxPoint x="750" y="410" as="targetPoint" />
            <mxPoint as="offset" />
          </mxGeometry>
        </mxCell>
        <mxCell id="birgMrSsoCt3yu_jcz52-68" value="&amp;nbsp;6. Fournire de l&#39;énergie au moteur pendant le pédalage" style="edgeStyle=none;html=1;endArrow=open;endSize=12;verticalAlign=bottom;rounded=0;" edge="1" parent="1">
          <mxGeometry x="-0.0345" y="10" width="160" relative="1" as="geometry">
            <mxPoint x="1120" y="360" as="sourcePoint" />
            <mxPoint x="1410" y="360" as="targetPoint" />
            <mxPoint as="offset" />
          </mxGeometry>
        </mxCell>
        <mxCell id="birgMrSsoCt3yu_jcz52-70" value="" style="edgeStyle=none;html=1;endArrow=none;align=center;verticalAlign=bottom;exitX=0.5;exitY=1;rounded=0;strokeWidth=2;dashed=1;" edge="1" parent="1" source="birgMrSsoCt3yu_jcz52-7" target="birgMrSsoCt3yu_jcz52-69">
          <mxGeometry x="1" relative="1" as="geometry">
            <mxPoint x="1120" y="440" as="targetPoint" />
            <mxPoint x="1120" as="sourcePoint" />
          </mxGeometry>
        </mxCell>
        <mxCell id="birgMrSsoCt3yu_jcz52-69" value="" style="shape=rect;html=1;fillColor=#eeeeee;" vertex="1" parent="1">
          <mxGeometry x="1110" y="250" width="20" height="70" as="geometry" />
        </mxCell>
        <mxCell id="birgMrSsoCt3yu_jcz52-71" value="7.&amp;nbsp;&amp;nbsp;fournire une puissance supplémentaire lors du pédalage" style="edgeStyle=none;html=1;endArrow=open;endSize=12;verticalAlign=bottom;rounded=0;" edge="1" parent="1">
          <mxGeometry width="160" relative="1" as="geometry">
            <mxPoint x="1410" y="460" as="sourcePoint" />
            <mxPoint x="440" y="460" as="targetPoint" />
            <mxPoint as="offset" />
          </mxGeometry>
        </mxCell>
        <mxCell id="birgMrSsoCt3yu_jcz52-72" value="&lt;font style=&quot;&quot;&gt;&lt;b&gt;:&lt;/b&gt;&amp;nbsp;&lt;/font&gt;&lt;font style=&quot;font-weight: bold; font-size: 14px;&quot;&gt;Vélo&amp;nbsp;&lt;/font&gt;" style="shape=rect;html=1;whiteSpace=wrap;align=center;" vertex="1" parent="1">
          <mxGeometry x="360" y="-60" width="160" height="60" as="geometry" />
        </mxCell>
        <mxCell id="birgMrSsoCt3yu_jcz52-73" value="" style="edgeStyle=none;html=1;endArrow=none;align=center;verticalAlign=bottom;exitX=0.5;exitY=1;rounded=0;exitDx=0;exitDy=0;strokeWidth=2;dashed=1;" edge="1" parent="1" source="birgMrSsoCt3yu_jcz52-72">
          <mxGeometry x="1" relative="1" as="geometry">
            <mxPoint x="440" y="560" as="targetPoint" />
            <mxPoint x="429.09000000000003" y="170" as="sourcePoint" />
          </mxGeometry>
        </mxCell>
        <mxCell id="birgMrSsoCt3yu_jcz52-74" value="1. Montée sur le vélo&amp;nbsp;" style="edgeStyle=none;html=1;endArrow=open;endSize=12;verticalAlign=bottom;rounded=0;" edge="1" parent="1">
          <mxGeometry width="160" relative="1" as="geometry">
            <mxPoint x="140" y="50" as="sourcePoint" />
            <mxPoint x="440" y="50" as="targetPoint" />
            <mxPoint as="offset" />
          </mxGeometry>
        </mxCell>
      </root>
    </mxGraphModel>
  </diagram>
</mxfile>
